<svg width="29" height="30" viewBox="0 0 29 30" fill="none" xmlns="http://www.w3.org/2000/svg">
<path d="M14.88 29.4C12.88 29.4 11 29.04 9.24 28.32C7.50667 27.5733 5.97333 26.5333 4.64 25.2C3.33333 23.8667 2.30667 22.3333 1.56 20.6C0.84 18.84 0.48 16.9467 0.48 14.92C0.48 12.8667 0.853333 10.9733 1.6 9.24C2.34667 7.48 3.38667 5.94667 4.72 4.64C6.05333 3.30667 7.61333 2.28 9.4 1.56C11.1867 0.813331 13.12 0.439998 15.2 0.439998C17.52 0.439998 19.6533 0.879998 21.6 1.76C23.5467 2.61333 25.16 3.82666 26.44 5.4L22.76 9.08C21.88 7.93333 20.7867 7.05333 19.48 6.44C18.1733 5.82667 16.7333 5.52 15.16 5.52C13.3733 5.52 11.7867 5.92 10.4 6.72C9.04 7.49333 7.97333 8.58667 7.2 10C6.42667 11.3867 6.04 13.0133 6.04 14.88C6.04 16.7467 6.41333 18.4 7.16 19.84C7.93333 21.2533 8.97333 22.36 10.28 23.16C11.6133 23.96 13.1333 24.36 14.84 24.36C16.6 24.36 18.1067 24.04 19.36 23.4C20.6133 22.7333 21.5733 21.7733 22.24 20.52C22.9067 19.24 23.24 17.68 23.24 15.84L26.8 18.28L14.52 18.16V13.44H28.84V14.2C28.84 17.56 28.24 20.3733 27.04 22.64C25.84 24.88 24.1867 26.5733 22.08 27.72C20 28.84 17.6 29.4 14.88 29.4Z" fill="white"/>
</svg>
