<svg width="32" height="35" viewBox="0 0 32 35" fill="none" xmlns="http://www.w3.org/2000/svg">
<path d="M16.0996 36.0752L3.13636 32.4765L0.247559 0.0751953H31.9905L29.0987 32.4714L16.0996 36.0752Z" fill="#264DE4"/>
<path d="M26.623 30.4085L29.0943 2.72446H16.1191V33.3206L26.623 30.4085Z" fill="#2965F1"/>
<path d="M6.87012 14.7417L7.22628 18.7155H16.1191V14.7417H6.87012Z" fill="#EBEBEB"/>
<path d="M6.15454 6.69839L6.51578 10.6723H16.1192V6.69839H6.15454Z" fill="#EBEBEB"/>
<path d="M16.1188 25.0623L16.1014 25.0669L11.6756 23.8719L11.3927 20.7025H7.40356L7.96031 26.9421L16.1005 29.2019L16.1188 29.1968V25.0623Z" fill="#EBEBEB"/>
<path d="M25.3427 14.7416L26.0601 6.69839H16.1055V10.6723H21.7051L21.3435 14.7416H16.1055V18.7155H20.9989L20.5376 23.8693L16.1055 25.0656V29.1999L24.2522 26.9421L24.3119 26.2707L25.2457 15.8087L25.3427 14.7416Z" fill="white"/>
</svg>
