<svg width="32" height="36" viewBox="0 0 32 36" fill="none" xmlns="http://www.w3.org/2000/svg">
<path d="M31.743 0L28.8511 32.3962L15.8521 36L2.8888 32.4013L0 0H31.743Z" fill="#E44D26"/>
<path d="M15.8713 33.2454L26.3752 30.3333L28.8465 2.64926H15.8713V33.2454Z" fill="#F16529"/>
<path d="M15.8716 10.5971H10.2499L10.6131 14.6664H15.8716V18.6403H6.97881L5.90698 6.6232H15.8716V10.5971Z" fill="#EBEBEB"/>
<path d="M7.15647 20.6273H11.1456L11.4285 23.7967L15.8543 24.9917L15.8717 24.9871V29.1216L15.8534 29.1267L7.71321 26.8669L7.15647 20.6273Z" fill="#EBEBEB"/>
<path d="M15.8577 10.5971V6.6232H25.8123L25.4565 10.5971H15.8577Z" fill="white"/>
<path d="M20.7511 18.6403H15.8577V14.6665H25.0949L24.9979 15.7336L24.0044 26.8669L15.8577 29.1248V24.9904L20.2898 23.7942L20.7511 18.6403Z" fill="white"/>
</svg>
