<svg width="28" height="36" viewBox="0 0 28 36" fill="none" xmlns="http://www.w3.org/2000/svg">
<path d="M21.6743 26.3766C28.4285 22.8669 25.3056 19.4941 23.1259 19.9485C22.5917 20.0597 22.3534 20.156 22.3534 20.156C22.3534 20.156 22.5518 19.8453 22.9306 19.7109C27.2428 18.1948 30.5591 24.1822 21.5386 26.5535C21.5386 26.5536 21.6431 26.4602 21.6743 26.3766Z" fill="#5382A1"/>
<path d="M7.62013 21.9342C3.39422 21.3699 9.93715 19.8158 9.93715 19.8158C9.93715 19.8158 7.39628 19.6444 4.27129 21.155C0.57613 22.9424 13.4116 23.7554 20.0558 22.0079C20.7466 21.5363 21.7014 21.1274 21.7014 21.1274C21.7014 21.1274 18.9824 21.613 16.2747 21.8414C12.9614 22.119 9.40445 22.1731 7.62013 21.9342Z" fill="#5382A1"/>
<path d="M9.22812 25.2857C6.87161 25.0419 8.41461 23.8998 8.41461 23.8998C2.31676 25.9237 11.8073 28.2188 20.328 25.7272C19.4224 25.4078 18.8464 24.8239 18.8464 24.8239C14.6821 25.6258 12.2755 25.6001 9.22812 25.2857Z" fill="#5382A1"/>
<path d="M10.2545 28.9119C7.89974 28.6412 9.27546 27.8412 9.27546 27.8412C3.7401 29.3879 12.6424 32.5832 19.6898 29.5628C18.5355 29.1139 17.709 28.5957 17.709 28.5957C14.5652 29.1907 13.1072 29.2374 10.2545 28.9119Z" fill="#5382A1"/>
<path d="M24.995 30.7565C24.995 30.7565 26.013 31.5953 23.8738 32.2443C19.8059 33.4766 6.94295 33.8487 3.36967 32.2934C2.08516 31.7346 4.49397 30.9591 5.25169 30.7964C6.04192 30.625 6.4935 30.657 6.4935 30.657C5.065 29.6506 -2.73973 32.6329 2.52908 33.487C16.8979 35.8172 28.7221 32.4377 24.995 30.7565Z" fill="#5382A1"/>
<path d="M27.2754 32.5892C27.0396 35.6569 17.084 36.3021 10.6008 35.8871C6.37128 35.6159 5.52373 34.9381 5.51137 34.9282C9.55923 35.5956 16.3839 35.717 21.9174 34.6757C26.8222 33.7522 27.2754 32.5892 27.2754 32.5892Z" fill="#5382A1"/>
<path d="M14.0547 9.49607C21.3431 3.7422 17.6025 0.000366211 17.6025 0.000366211C18.6096 3.96646 15.9036 6.08521 13.2591 8.15594C11.9404 9.18844 10.637 10.209 9.81678 11.4407C8.13716 13.9625 10.6408 16.6721 14.0523 19.7502C13.7507 19.0685 13.2855 18.406 12.8146 17.7354C11.2085 15.448 9.53531 13.0652 14.0547 9.49607Z" fill="#E76F00"/>
<path d="M15.218 21.0122C15.218 21.0122 17.4107 19.2132 15.6743 17.2139C9.78794 10.4314 22.1122 7.35339 22.1122 7.35339C14.5979 11.7114 15.6036 13.1083 17.3617 15.5503C17.4406 15.6599 17.521 15.7716 17.6023 15.8858C19.6272 18.7361 15.218 21.0122 15.218 21.0122Z" fill="#E76F00"/>
</svg>
