<svg width="36" height="36" viewBox="0 0 36 36" fill="none" xmlns="http://www.w3.org/2000/svg">
<rect y="0.000366211" width="36" height="36" fill="#FFCA28"/>
<path d="M21.8571 29.9416L24.5077 28.1878C24.7154 28.8404 26.0308 30.3903 27.6923 30.3903C29.3538 30.3903 30.1253 29.4828 30.1253 28.8812C30.1253 27.2416 28.4287 26.6636 27.6138 26.3859C27.4809 26.3406 27.3715 26.3034 27.2967 26.2708C27.2584 26.2541 27.2003 26.2319 27.1258 26.2034C26.2195 25.8572 22.8758 24.5797 22.8758 20.8767C22.8758 16.798 26.8121 16.3289 27.7022 16.3289C28.2845 16.3289 31.0846 16.4003 32.4791 19.0209L29.9077 20.8155C29.344 19.6735 28.4073 19.2962 27.8308 19.2962C26.4066 19.2962 26.1099 20.3403 26.1099 20.8155C26.1099 22.1491 27.6572 22.7468 28.9637 23.2515C29.3055 23.3835 29.6309 23.5092 29.9077 23.64C31.3319 24.313 33.4286 25.4142 33.4286 28.8812C33.4286 30.6176 31.9721 33.4289 28.3055 33.4289C23.3802 33.4289 22.0747 30.4719 21.8571 29.9416Z" fill="#3E3E3E"/>
<path d="M9 30.2899L11.7626 28.5369C11.9791 29.1892 12.8202 30.3918 14.0407 30.3918C15.2612 30.3918 15.8858 29.1382 15.8858 28.5369V16.7146H19.2834V28.5369C19.3384 30.1676 18.434 33.4289 14.4427 33.4289C10.773 33.4289 9.2474 31.2479 9 30.2899Z" fill="#3E3E3E"/>
</svg>
