<svg width="34" height="36" viewBox="0 0 34 36" fill="none" xmlns="http://www.w3.org/2000/svg">
<path d="M31.2577 17.7254C31.2577 15.8747 29.7575 14.3745 27.9068 14.3745C27.7878 14.3745 27.6703 14.3809 27.5546 14.393L32.157 0.818787H12.5983L17.1943 14.3813C17.1269 14.3772 17.0591 14.3745 16.9907 14.3745C15.1401 14.3745 13.6398 15.8747 13.6398 17.7254C13.6398 19.2213 14.6202 20.4877 15.9732 20.9186C15.2586 22.1565 14.3593 23.2714 13.3384 24.2346C11.9502 25.5443 10.3613 26.5373 8.64287 27.1493C6.59698 26.0983 5.63078 23.7609 6.50262 21.7114C6.60099 21.4799 6.70157 21.2454 6.79756 21.0118C8.27984 20.6659 9.38426 19.3371 9.38426 17.7494C9.38426 15.8988 7.88406 14.3986 6.03335 14.3986C4.18272 14.3986 2.68244 15.8988 2.68244 17.7494C2.68244 18.8843 3.24713 19.8867 4.11021 20.4928C3.28085 22.3812 2.06169 24.3575 1.68188 26.648C1.22669 29.393 1.6804 32.3068 4.05456 33.9524C9.58378 37.7846 15.5857 31.5767 21.9139 30.0162C24.2074 29.4506 26.7248 29.5417 28.7454 28.3714C30.2628 27.4926 31.2631 26.0361 31.547 24.401C31.8275 22.7857 31.4186 21.1774 30.4783 19.8732C30.9647 19.2916 31.2577 18.5429 31.2577 17.7254Z" fill="#99425B"/>
<path d="M30.7407 24.261C30.4942 25.6806 29.6174 26.9206 28.3352 27.6633C27.1399 28.3556 25.7075 28.5622 24.1911 28.7809C23.3786 28.898 22.5386 29.0192 21.7179 29.2216C19.5479 29.7567 17.4461 30.8007 15.4136 31.8102C11.3459 33.8307 7.83305 35.5753 4.52069 33.2797C2.0944 31.5981 2.20644 28.4868 2.48911 26.7819C2.75108 25.2023 3.45931 23.7476 4.14423 22.3407C4.26256 22.0975 4.37853 21.8588 4.49139 21.6221C4.83086 21.7577 5.19193 21.8502 5.56831 21.8923C4.87112 24.1932 5.96752 26.695 8.26884 27.8773L8.58376 28.0391L8.91733 27.9203C10.7366 27.2724 12.413 26.2327 13.8999 24.8298C14.8611 23.9231 15.6875 22.9199 16.3667 21.848C16.5703 21.8786 16.7786 21.8948 16.9906 21.8948C19.1027 21.8948 20.8518 20.3158 21.1224 18.2764C21.987 18.2447 22.9053 18.2445 23.7748 18.2761C24.0453 20.3156 25.7945 21.8948 27.9066 21.8948C28.7898 21.8948 29.609 21.618 30.2838 21.1478C30.7524 22.1069 30.9272 23.186 30.7407 24.261ZM6.03324 15.217C7.42974 15.217 8.56575 16.3531 8.56575 17.7495C8.56575 18.2511 8.4186 18.7188 8.16589 19.1127C7.74482 19.7692 7.02947 20.2193 6.20723 20.2754C6.14969 20.2793 6.09175 20.282 6.03324 20.282C5.72208 20.282 5.42394 20.2252 5.14831 20.1222C4.59074 19.9135 4.12614 19.5135 3.83389 19.0027C3.62234 18.6328 3.50072 18.2052 3.50072 17.7495C3.50072 16.3531 4.63682 15.217 6.03324 15.217ZM14.4581 17.7255C14.4581 16.4567 15.396 15.4032 16.6147 15.221C16.7374 15.2026 16.8629 15.193 16.9906 15.193C17.8025 15.193 18.5253 15.5776 18.9889 16.1736C19.1041 16.3216 19.204 16.4823 19.2845 16.6538C19.4373 16.9795 19.5231 17.3425 19.5231 17.7255C19.5231 17.9279 19.4986 18.1248 19.4535 18.3136C19.2066 19.3468 18.3256 20.1365 17.2461 20.2451C17.1621 20.2536 17.0769 20.258 16.9906 20.258C16.485 20.258 16.0139 20.1085 15.6181 19.8521C14.9208 19.4005 14.4581 18.6162 14.4581 17.7255ZM25.0279 14.714C24.4854 15.2331 24.0819 15.8964 23.881 16.6422C22.9432 16.607 21.9488 16.607 21.0164 16.6422C20.8022 15.8473 20.358 15.146 19.7605 14.6133L22.3809 9.31444L25.0279 14.714ZM13.7397 1.63727H31.0152L26.935 13.6714C26.7581 13.7139 26.5856 13.7673 26.4182 13.8316L22.3874 5.60901L18.3453 13.7825C18.1706 13.7223 17.9905 13.6739 17.8062 13.6371L13.7397 1.63727ZM30.4392 17.7255C30.4392 17.9794 30.4012 18.2245 30.3314 18.456C30.1651 19.0066 29.8161 19.4784 29.3553 19.801C28.9445 20.0886 28.4451 20.258 27.9066 20.258C26.7373 20.258 25.7509 19.4611 25.461 18.382C25.4047 18.1725 25.3741 17.9525 25.3741 17.7255C25.3741 17.3793 25.4441 17.0492 25.5704 16.7485C25.6354 16.5935 25.7166 16.447 25.8098 16.3093C26.2656 15.6367 27.0347 15.193 27.9066 15.193C27.9866 15.193 28.0655 15.1971 28.1436 15.2044C29.4293 15.3242 30.4392 16.4089 30.4392 17.7255ZM32.0759 17.7255C32.0759 15.69 30.6094 13.9916 28.6777 13.6288L33.2985 0.000488281H11.4568L16.0846 13.6565C14.2199 14.0714 12.8213 15.7377 12.8213 17.7255C12.8213 19.2181 13.6102 20.5292 14.7923 21.2659C14.2237 22.1131 13.5493 22.9103 12.7767 23.6393C11.5512 24.7955 10.1859 25.6722 8.71404 26.2491C7.23153 25.3179 6.6048 23.5617 7.25567 22.0317L7.30666 21.9118C7.33857 21.8369 7.37049 21.7619 7.40233 21.6868C9.03068 21.1189 10.2025 19.569 10.2025 17.7495C10.2025 15.4505 8.33218 13.5802 6.03324 13.5802C3.73429 13.5802 1.86394 15.4505 1.86394 17.7495C1.86394 18.9099 2.3409 19.9607 3.10855 20.7173C2.96942 21.0139 2.82293 21.3154 2.67259 21.6242C1.97074 23.0658 1.17526 24.6997 0.874421 26.5141C0.276913 30.1175 1.24073 32.998 3.58829 34.625C5.01287 35.6123 6.45946 36.0005 7.91529 36.0005C10.6566 36.0005 13.4295 34.6233 16.1417 33.2761C18.0949 32.306 20.1147 31.3028 22.1098 30.8107C22.8521 30.6277 23.616 30.5175 24.4247 30.4009C26.0284 30.1695 27.6867 29.9304 29.1555 29.0797C30.8582 28.0934 32.0237 26.4391 32.3533 24.541C32.6362 22.9115 32.2958 21.2794 31.4653 19.8954C31.8524 19.2628 32.0759 18.5198 32.0759 17.7255Z" fill="white"/>
</svg>
