<svg width="36" height="36" viewBox="0 0 36 36" fill="none" xmlns="http://www.w3.org/2000/svg">
<path d="M0 18.0009V36.0009H18H36V18.0009V0.000854492H18H0V18.0009Z" fill="#007ACC"/>
<path d="M7.96097 18.1202L7.94954 19.5945H10.2924H12.6353L12.6353 26.2517V32.9088H14.2924H15.9495V26.2517L15.9495 19.5945H18.2924H20.6353L20.6353 18.1488C20.6353 17.3488 20.6181 16.6802 20.5953 16.6631C20.5781 16.6402 17.7267 16.6288 14.2695 16.6345L7.97811 16.6517L7.96097 18.1202Z" fill="white"/>
<path d="M29.0484 16.6098C29.9627 16.8384 30.6598 17.2441 31.2998 17.9069C31.6313 18.2612 32.1227 18.9069 32.1627 19.0612C32.1741 19.1069 30.6084 20.1584 29.6598 20.7469C29.6256 20.7698 29.4884 20.6212 29.3341 20.3927C28.8713 19.7184 28.3856 19.4269 27.6427 19.3755C26.5513 19.3012 25.8484 19.8727 25.8541 20.8269C25.8541 21.1069 25.8941 21.2727 26.0084 21.5012C26.2484 21.9984 26.6941 22.2955 28.0941 22.9012C30.6713 24.0098 31.7741 24.7412 32.4598 25.7812C33.2256 26.9412 33.397 28.7927 32.877 30.1698C32.3056 31.6669 30.8884 32.6841 28.8941 33.0212C28.277 33.1298 26.8141 33.1127 26.1513 32.9927C24.7056 32.7355 23.3341 32.0212 22.4884 31.0841C22.157 30.7184 21.5113 29.7641 21.5513 29.6955C21.5684 29.6727 21.717 29.5812 21.8827 29.4841C22.0427 29.3927 22.6484 29.0441 23.2198 28.7127L24.2541 28.1127L24.4713 28.4327C24.7741 28.8955 25.437 29.5298 25.837 29.7412C26.9856 30.3469 28.5627 30.2612 29.3398 29.5641C29.6713 29.2612 29.8084 28.9469 29.8084 28.4841C29.8084 28.0669 29.757 27.8841 29.5398 27.5698C29.2598 27.1698 28.6884 26.8327 27.0656 26.1298C25.2084 25.3298 24.4084 24.8327 23.677 24.0441C23.2541 23.5869 22.8541 22.8555 22.6884 22.2441C22.5513 21.7355 22.517 20.4612 22.6256 19.9469C23.0084 18.1527 24.3627 16.9012 26.317 16.5298C26.9513 16.4098 28.4256 16.4555 29.0484 16.6098Z" fill="white"/>
</svg>
